<svg width="16" height="16" viewBox="0 0 16 16" fill="none" xmlns="http://www.w3.org/2000/svg">
<circle cx="8" cy="8" r="8" fill="#F9F9F9"/>
<path d="M7.88682 11.5763H6.74158V13.6198H7.88682V11.5763Z" fill="#2F2E41"/>
<path d="M10.1773 11.5763H9.0321V13.6198H10.1773V11.5763Z" fill="#2F2E41"/>
<path d="M8.45946 12.3842C10.5414 12.3842 12.2292 10.7033 12.2292 8.62978C12.2292 6.55627 10.5414 4.87537 8.45946 4.87537C6.37748 4.87537 4.6897 6.55627 4.6897 8.62978C4.6897 10.7033 6.37748 12.3842 8.45946 12.3842Z" fill="#2F2E41"/>
<path d="M7.69595 14C8.22303 14 8.65032 13.8404 8.65032 13.6435C8.65032 13.4467 8.22303 13.2871 7.69595 13.2871C7.16886 13.2871 6.74158 13.4467 6.74158 13.6435C6.74158 13.8404 7.16886 14 7.69595 14Z" fill="#2F2E41"/>
<path d="M9.98648 13.9525C10.5136 13.9525 10.9408 13.7929 10.9408 13.5961C10.9408 13.3992 10.5136 13.2396 9.98648 13.2396C9.45939 13.2396 9.0321 13.3992 9.0321 13.5961C9.0321 13.7929 9.45939 13.9525 9.98648 13.9525Z" fill="#2F2E41"/>
<path d="M4.80268 5.13827C4.49829 3.78061 5.4713 2.40877 6.97598 2.07415C8.48065 1.73954 9.94718 2.56888 10.2516 3.92654C10.556 5.28419 9.55876 5.78492 8.05409 6.11952C6.54943 6.45413 5.10707 6.49592 4.80268 5.13827Z" fill="#6C63FF"/>
<path d="M12.5218 6.98914C13.3382 6.17543 13.7921 5.30886 13.5356 5.05361C13.2791 4.79836 12.4093 5.25108 11.5929 6.06479C10.7765 6.8785 10.3226 7.74507 10.5791 8.00032C10.8356 8.25557 11.7054 7.80285 12.5218 6.98914Z" fill="#2F2E41"/>
<path d="M5.4209 8.26188C5.67739 8.00663 5.22349 7.14006 4.40708 6.32635C3.59067 5.51264 2.72091 5.05992 2.46442 5.31517C2.20793 5.57042 2.66183 6.43699 3.47824 7.2507C4.29465 8.06441 5.16441 8.51713 5.4209 8.26188Z" fill="#2F2E41"/>
<path d="M8.30085 9.38088C9.01241 9.38088 9.58925 8.80639 9.58925 8.09773C9.58925 7.38906 9.01241 6.81458 8.30085 6.81458C7.58929 6.81458 7.01245 7.38906 7.01245 8.09773C7.01245 8.80639 7.58929 9.38088 8.30085 9.38088Z" fill="white"/>
<path d="M8.30087 8.52542C8.53806 8.52542 8.73034 8.33392 8.73034 8.0977C8.73034 7.86148 8.53806 7.66998 8.30087 7.66998C8.06368 7.66998 7.8714 7.86148 7.8714 8.0977C7.8714 8.33392 8.06368 8.52542 8.30087 8.52542Z" fill="#3F3D56"/>
<path d="M9.32361 10.4709C9.34332 10.5787 9.34151 10.6893 9.31829 10.7964C9.29507 10.9035 9.25089 11.0051 9.18828 11.0952C9.12567 11.1853 9.04585 11.2622 8.95337 11.3216C8.8609 11.381 8.75759 11.4217 8.64933 11.4413C8.54108 11.4609 8.43 11.4591 8.32245 11.436C8.21489 11.4129 8.11296 11.3689 8.02248 11.3065C7.932 11.2442 7.85473 11.1647 7.7951 11.0726C7.73546 10.9805 7.69463 10.8776 7.67492 10.7698V10.7698L7.67463 10.7682C7.59219 10.3147 7.94426 10.1542 8.39961 10.0721C8.85497 9.98999 9.24118 10.0174 9.32361 10.4709Z" fill="white"/>
</svg>
